# xmcd
#
# Track frame offsets:
#	150
#	16125
#	31305
#	51470
#	67215
#	88312
#	104852
#	120862
#	138897
#	157777
#	174312
#	193560
#	223700
#
# Disc length: 3668 seconds
#
# Revision: 1
# Processed by: cddbd v1.5.1PL0 Copyright (c) Steve Scherf et al.
# Submitted via: dBpowerAMP V4.0
#
DISCID=b30e520d
DTITLE=Reba McEntire - So Good Together
DYEAR=1900
DGENRE=country
TTITLE0=We're So Good Togethet
TTITLE1='Til I Said It To You
TTITLE2=I'll Be
TTITLE3=What Do You Say
TTITLE4=Roses
TTITLE5=I'm Not Your Girl
TTITLE6=She Wasn't Good Enough  For Him
TTITLE7=Nobody Dies From A Broken Heart
TTITLE8=Back Before The War
TTITLE9=When You're Not Trying To
TTITLE10=Where You End And I Begin
TTITLE11=We're All Alone [Duet w-Josey Durval]
TTITLE12=DATA
EXTD=
EXTT0=
EXTT1=
EXTT2=
EXTT3=
EXTT4=
EXTT5=
EXTT6=
EXTT7=
EXTT8=
EXTT9=
EXTT10=
EXTT11=
EXTT12=
PLAYORDER=
